<svg width="128" height="128" viewBox="0 0 128 128" fill="none" xmlns="http://www.w3.org/2000/svg">
<rect width="128" height="128" rx="2" fill="#0F7246"/>
<path d="M21.5277 90C21.0277 90 20.5777 89.825 20.1777 89.475C19.7777 89.075 19.5777 88.6 19.5777 88.05V39.45C19.5777 38.9 19.7777 38.45 20.1777 38.1C20.5777 37.7 21.0277 37.5 21.5277 37.5H43.4277C47.7777 37.5 51.5527 38.15 54.7527 39.45C58.0027 40.75 60.5277 42.725 62.3277 45.375C64.1277 48.025 65.0277 51.35 65.0277 55.35C65.0277 59.35 64.1277 62.65 62.3277 65.25C60.5277 67.8 58.0027 69.675 54.7527 70.875C51.5527 72.075 47.7777 72.675 43.4277 72.675H36.3027V88.05C36.3027 88.6 36.1027 89.075 35.7027 89.475C35.3527 89.825 34.9027 90 34.3527 90H21.5277ZM36.0027 60.6H43.0527C44.5027 60.6 45.7277 60.175 46.7277 59.325C47.7777 58.425 48.3027 57.05 48.3027 55.2C48.3027 53.8 47.9027 52.525 47.1027 51.375C46.3027 50.225 44.9527 49.65 43.0527 49.65H36.0027V60.6ZM78.1832 104.25C77.7332 104.25 77.3332 104.1 76.9832 103.8C76.6832 103.5 76.5332 103.125 76.5332 102.675C76.5332 102.575 76.5332 102.45 76.5332 102.3C76.5832 102.15 76.6332 101.975 76.6832 101.775L82.6832 87.6L68.2082 53.475C68.1082 53.175 68.0582 52.925 68.0582 52.725C68.1582 52.275 68.3582 51.875 68.6582 51.525C69.0082 51.175 69.4082 51 69.8582 51H80.4332C81.1832 51 81.7082 51.2 82.0082 51.6C82.3582 51.95 82.6082 52.3 82.7582 52.65L90.1082 72.15L97.6832 52.65C97.8832 52.25 98.1582 51.875 98.5082 51.525C98.8582 51.175 99.3832 51 100.083 51H110.583C110.983 51 111.358 51.175 111.708 51.525C112.058 51.825 112.233 52.175 112.233 52.575C112.233 52.875 112.183 53.175 112.083 53.475L90.9332 102.6C90.7332 103 90.4332 103.375 90.0332 103.725C89.6832 104.075 89.1582 104.25 88.4582 104.25H78.1832Z" fill="white"/>
</svg>
